<?xml version="1.0" encoding="UTF-8" standalone="no"?>
<!-- Created with Inkscape (http://www.inkscape.org/) -->

<svg
   width="600"
   height="600"
   viewBox="0 0 600 600"
   version="1.1"
   id="svg5"
   xml:space="preserve"
   inkscape:export-filename="logo.png"
   inkscape:export-xdpi="48"
   inkscape:export-ydpi="48"
   inkscape:version="1.2.1 (9c6d41e4, 2022-07-14)"
   sodipodi:docname="logo.svg"
   xmlns:inkscape="http://www.inkscape.org/namespaces/inkscape"
   xmlns:sodipodi="http://sodipodi.sourceforge.net/DTD/sodipodi-0.dtd"
   xmlns="http://www.w3.org/2000/svg"
   xmlns:svg="http://www.w3.org/2000/svg"><sodipodi:namedview
     id="namedview7"
     pagecolor="#ffffff"
     bordercolor="#666666"
     borderopacity="1.0"
     inkscape:showpageshadow="2"
     inkscape:pageopacity="0.0"
     inkscape:pagecheckerboard="0"
     inkscape:deskcolor="#d1d1d1"
     inkscape:document-units="px"
     showgrid="false"
     inkscape:zoom="0.78666666"
     inkscape:cx="562.5"
     inkscape:cy="366.73729"
     inkscape:window-width="1920"
     inkscape:window-height="1027"
     inkscape:window-x="0"
     inkscape:window-y="25"
     inkscape:window-maximized="1"
     inkscape:current-layer="layer1" /><defs
     id="defs2"><path
       id="B"
       d="m 65.605,29.258 c -0.877,0.404 -1.722,0.875 -2.526,1.41 v 6.215 h -2.444 v -9.645 h 2.04 l 0.158,1.067 a 10.8,10.8 0 0 1 2.526,-1.263 z" /><path
       d="m 180.82764,252.60527 c 4.01631,1.56489 8.59642,1.46428 12.65058,-0.4861 l 52.50092,-25.26232 c 5.51645,-2.65463 9.02475,-8.23882 9.02475,-14.36389 V 41.197184 c 0,-6.125273 -3.5083,-11.708563 -9.02475,-14.363193 L 193.47822,1.5706855 c -5.32021,-2.55994221 -11.54689,-1.93291554 -16.21565,1.4616604 -0.6674,0.4849258 -1.30292,1.0263508 -1.89859,1.6230201 L 74.856589,96.349844 31.0778,63.118156 C 27.00242,60.02464 21.302087,60.27805 17.517072,63.7211 L 3.4757806,76.493707 c -4.6298048,4.211549 -4.6351141,11.495197 -0.011465,15.71352 L 41.430759,126.84453 3.4643154,161.48222 c -4.6236489,4.21852 -4.6183396,11.50207 0.011465,15.71362 l 14.0412916,12.77211 c 3.785015,3.44355 9.485348,3.69656 13.560728,0.60364 L 74.856589,157.3394 175.36398,249.03422 c 1.58979,1.59079 3.4565,2.78911 5.46366,3.57105 z m 10.46412,-183.649318 -76.2621,57.888578 76.2621,57.88887 z"
       id="path-1" /><linearGradient
       x1="127.17294"
       y1="0.00016458001"
       x2="127.17294"
       y2="254.3456"
       id="linearGradient-3"
       gradientTransform="scale(1.002588,0.99741863)"
       gradientUnits="userSpaceOnUse"><stop
         stop-color="#FFFFFF"
         offset="0%"
         id="stop18241" /><stop
         stop-color="#FFFFFF"
         stop-opacity="0"
         offset="100%"
         id="stop18243" /></linearGradient></defs><g
     inkscape:label="Layer 1"
     inkscape:groupmode="layer"
     id="layer1"><rect
       style="opacity:0.522091;fill:#a8dadc;fill-opacity:1;stroke-width:0.366659"
       id="rect8275"
       width="133.47141"
       height="314.57895"
       x="-267.50015"
       y="-634.03284"
       transform="matrix(-1,0,-0.30499322,-0.95235452,0,0)" /><rect
       style="opacity:0.522091;fill:#8a757d;fill-opacity:1;stroke-width:0.369473"
       id="rect8283"
       width="133.47141"
       height="319.42517"
       x="-269.12619"
       y="-318.96161"
       transform="matrix(-1,0,-0.30036593,-0.95382404,0,0)" /><rect
       style="opacity:0.522091;fill:#efb366;fill-opacity:1;stroke-width:0.366557"
       id="rect841"
       width="133.47141"
       height="314.40118"
       x="-406.90384"
       y="-319.27332"
       transform="matrix(-1,0,-0.30330691,-0.95289292,0,0)" /><rect
       style="opacity:0.522091;fill:#f4a261;fill-opacity:1;stroke-width:0.366557"
       id="rect8279"
       width="133.47141"
       height="314.40118"
       x="-406.90384"
       y="-633.67444"
       transform="matrix(-1,0,-0.30330691,-0.95289292,0,0)" /><path
       id="path8290-9"
       style="fill:#457b9d;fill-opacity:1;stroke-width:0.357817"
       d="M 273.32429,1.0577926 369.2699,300.64848 465.21286,600.23914 H 598.68421 L 502.74128,300.64848 406.79571,1.0577926 Z" /><path
       id="path8290"
       style="fill:#e63946;fill-opacity:1;stroke-width:0.357817"
       d="M 0.72746625,0.8545709 96.673058,300.44524 192.61603,600.03591 H 326.0874 L 230.14444,300.44524 134.19884,0.8545709 Z" /><path
       id="rect8285"
       style="fill:#ffffff;stroke-width:0.357817"
       d="m 144.87656,0.8545715 95.94559,299.5906685 95.94299,299.59063 h 4.74947 L 245.57162,300.44524 149.62603,0.8545715 Z"
       sodipodi:nodetypes="ccccccc" /><path
       id="rect8285-4"
       style="fill:#ffffff;stroke-width:0.357817"
       d="m 269.61518,3.5842082 95.94558,299.5906618 95.943,299.59064 h 4.74947 L 370.31022,303.17487 274.36464,3.5842082 Z"
       sodipodi:nodetypes="ccccccc" /><g
       id="g9910"
       transform="matrix(0.90839842,0,0,0.92082189,103.67032,124.33169)"
       style="fill:#f2f2f2"><g
         id="g9853"
         style="fill:#f2f2f2">
	<g
   id="g9851"
   style="fill:#f2f2f2">
		<path
   d="M 257.187,29.94 C 162.326,4.236 32.582,66.66 28.298,173.148 22.79,167.028 16.67,161.52 10.55,156.012 c -4.896,-4.284 -11.628,0 -10.404,6.12 4.284,31.212 22.644,58.14 42.84,82.007 1.836,2.449 7.344,2.449 9.18,0 18.36,-23.256 23.868,-52.02 26.928,-80.171 0.612,-4.896 -6.12,-7.956 -9.792,-5.508 -7.956,5.508 -18.36,9.792 -26.928,15.912 8.568,-47.736 30.6,-83.232 74.052,-109.548 41.616,-25.092 91.8,-29.988 139.537,-26.316 4.895,0.612 5.508,-7.344 1.224,-8.568 z M 16.058,175.596 c 4.284,3.672 7.956,6.732 12.24,10.404 0.612,0.612 1.224,0.612 1.836,1.224 0.612,0.612 1.836,1.224 3.06,1.836 1.224,2.448 4.284,4.284 7.344,1.836 7.956,-4.896 15.912,-9.792 23.868,-14.688 -3.06,18.36 -7.344,37.332 -17.748,52.632 -12.852,-15.912 -24.48,-33.66 -30.6,-53.244 z"
   id="path9845"
   style="fill:#f2f2f2" />
		<path
   d="m 421.814,287.592 c -32.436,9.791 -64.26,22.031 -97.92,28.764 -5.508,1.225 -5.508,10.404 0,11.627 14.688,2.449 28.764,6.732 42.84,9.182 -20.196,15.912 -37.944,29.988 -63.036,39.779 -29.376,11.016 -60.588,15.301 -91.8,14.076 -66.096,-1.836 -124.236,-36.721 -141.984,-102.205 -1.224,-4.283 -8.568,-3.672 -7.956,1.225 7.344,67.932 67.32,106.488 130.968,113.832 54.469,6.121 140.148,-4.896 180.541,-51.408 1.224,12.852 5.508,25.092 12.852,36.109 3.061,4.283 7.956,4.283 11.017,0 18.972,-27.541 23.256,-61.812 31.823,-93.025 1.835,-4.895 -2.448,-9.18 -7.345,-7.956 z m -36.108,53.244 c 0,-1.225 -0.611,-2.449 -1.224,-3.672 3.06,-6.121 -4.284,-10.404 -9.18,-6.732 l -0.612,0.611 c 0,0 0,0 -0.612,0 -8.567,-2.447 -17.136,-5.508 -25.703,-7.955 22.031,-5.508 44.063,-13.465 66.096,-20.197 -6.12,23.869 -10.404,48.35 -22.645,69.77 -3.672,-9.793 -5.508,-20.198 -6.12,-31.825 z"
   id="path9847"
   style="fill:#f2f2f2" />
		<path
   d="m 355.106,80.124 c 7.956,-8.568 14.076,-18.36 24.48,-24.48 4.896,-2.448 4.283,-10.404 -1.837,-11.628 -28.764,-6.732 -58.14,-6.732 -86.903,-6.732 -6.12,0 -7.956,6.732 -4.284,11.016 18.972,22.644 33.048,48.348 46.512,74.664 3.061,5.508 12.24,3.06 12.24,-3.06 -0.612,-9.792 0.612,-18.972 1.224,-28.764 52.633,36.72 67.933,104.04 70.992,164.628 0,5.508 7.344,4.896 7.956,0 6.12,-63.036 -15.912,-138.924 -70.38,-175.644 z m -11.627,-6.12 c -0.612,0.612 -1.224,0.612 -1.224,1.224 -1.836,0.612 -3.061,2.448 -3.673,3.672 -0.611,0.612 -1.224,1.224 -1.224,2.448 -0.612,5.508 -1.836,11.628 -2.448,17.136 -9.18,-17.136 -18.972,-33.66 -30.6,-48.96 18.972,0 38.556,0.612 56.916,3.672 -6.12,6.732 -11.627,14.076 -17.747,20.808 z"
   id="path9849"
   style="fill:#f2f2f2" />
	</g>
</g><g
         id="g9855"
         style="fill:#f2f2f2">
</g><g
         id="g9857"
         style="fill:#f2f2f2">
</g><g
         id="g9859"
         style="fill:#f2f2f2">
</g><g
         id="g9861"
         style="fill:#f2f2f2">
</g><g
         id="g9863"
         style="fill:#f2f2f2">
</g><g
         id="g9865"
         style="fill:#f2f2f2">
</g><g
         id="g9867"
         style="fill:#f2f2f2">
</g><g
         id="g9869"
         style="fill:#f2f2f2">
</g><g
         id="g9871"
         style="fill:#f2f2f2">
</g><g
         id="g9873"
         style="fill:#f2f2f2">
</g><g
         id="g9875"
         style="fill:#f2f2f2">
</g><g
         id="g9877"
         style="fill:#f2f2f2">
</g><g
         id="g9879"
         style="fill:#f2f2f2">
</g><g
         id="g9881"
         style="fill:#f2f2f2">
</g><g
         id="g9883"
         style="fill:#f2f2f2">
</g></g></g><style
     id="style5576"><![CDATA[.C{fill-rule:evenodd}]]></style><style
     id="style16705"><![CDATA[.C{fill-rule:evenodd}]]></style></svg>
