<?xml version="1.0" encoding="UTF-8" standalone="no"?>
<!-- Created with Inkscape (http://www.inkscape.org/) -->

<svg
   width="1280"
   height="640"
   viewBox="0 0 1280 640"
   version="1.1"
   id="svg5"
   xml:space="preserve"
   inkscape:export-filename="logo.png"
   inkscape:export-xdpi="96"
   inkscape:export-ydpi="96"
   inkscape:version="1.2.1 (9c6d41e4, 2022-07-14)"
   sodipodi:docname="logo.svg"
   xmlns:inkscape="http://www.inkscape.org/namespaces/inkscape"
   xmlns:sodipodi="http://sodipodi.sourceforge.net/DTD/sodipodi-0.dtd"
   xmlns="http://www.w3.org/2000/svg"
   xmlns:svg="http://www.w3.org/2000/svg"><sodipodi:namedview
     id="namedview7"
     pagecolor="#ffffff"
     bordercolor="#666666"
     borderopacity="1.0"
     inkscape:showpageshadow="2"
     inkscape:pageopacity="0.0"
     inkscape:pagecheckerboard="0"
     inkscape:deskcolor="#d1d1d1"
     inkscape:document-units="px"
     showgrid="false"
     inkscape:zoom="0.71895385"
     inkscape:cx="510.46392"
     inkscape:cy="267.75015"
     inkscape:window-width="2560"
     inkscape:window-height="1387"
     inkscape:window-x="2560"
     inkscape:window-y="25"
     inkscape:window-maximized="1"
     inkscape:current-layer="g6394" /><defs
     id="defs2"><rect
       x="136.30917"
       y="-221.15467"
       width="488.20936"
       height="194.72738"
       id="rect23634" /><rect
       x="-45.900025"
       y="-368.59111"
       width="1203.137"
       height="164.12736"
       id="rect16308" /><rect
       x="258.70923"
       y="112.6637"
       width="390.84567"
       height="190.55465"
       id="rect16252" /><path
       id="B"
       d="m 65.605,29.258 c -0.877,0.404 -1.722,0.875 -2.526,1.41 v 6.215 h -2.444 v -9.645 h 2.04 l 0.158,1.067 a 10.8,10.8 0 0 1 2.526,-1.263 z" /><path
       d="m 180.82764,252.60527 c 4.01631,1.56489 8.59642,1.46428 12.65058,-0.4861 l 52.50092,-25.26232 c 5.51645,-2.65463 9.02475,-8.23882 9.02475,-14.36389 V 41.197184 c 0,-6.125273 -3.5083,-11.708563 -9.02475,-14.363193 L 193.47822,1.5706855 c -5.32021,-2.55994221 -11.54689,-1.93291554 -16.21565,1.4616604 -0.6674,0.4849258 -1.30292,1.0263508 -1.89859,1.6230201 L 74.856589,96.349844 31.0778,63.118156 C 27.00242,60.02464 21.302087,60.27805 17.517072,63.7211 L 3.4757806,76.493707 c -4.6298048,4.211549 -4.6351141,11.495197 -0.011465,15.71352 L 41.430759,126.84453 3.4643154,161.48222 c -4.6236489,4.21852 -4.6183396,11.50207 0.011465,15.71362 l 14.0412916,12.77211 c 3.785015,3.44355 9.485348,3.69656 13.560728,0.60364 L 74.856589,157.3394 175.36398,249.03422 c 1.58979,1.59079 3.4565,2.78911 5.46366,3.57105 z m 10.46412,-183.649318 -76.2621,57.888578 76.2621,57.88887 z"
       id="path-1" /><linearGradient
       x1="127.17294"
       y1="0.00016458001"
       x2="127.17294"
       y2="254.3456"
       id="linearGradient-3"
       gradientTransform="scale(1.002588,0.99741863)"
       gradientUnits="userSpaceOnUse"><stop
         stop-color="#FFFFFF"
         offset="0%"
         id="stop18241" /><stop
         stop-color="#FFFFFF"
         stop-opacity="0"
         offset="100%"
         id="stop18243" /></linearGradient><rect
       x="136.30917"
       y="-221.15466"
       width="488.20935"
       height="194.72739"
       id="rect23634-8" /></defs><g
     inkscape:label="Layer 1"
     inkscape:groupmode="layer"
     id="layer1"
     transform="translate(-0.72746625,0.44215659)"><g
       id="g6394"
       transform="translate(41.911976,17.46332)"><rect
         style="opacity:1;fill:#f58851;fill-opacity:1;stroke:#ffffff;stroke-width:3.02865"
         id="rect10922-84-7"
         width="148.31596"
         height="642.71393"
         x="717.65808"
         y="-19.03014" /><rect
         style="opacity:1;fill:#f48443;fill-opacity:1;stroke:#ffffff;stroke-width:3.79364"
         id="rect10922-8-1"
         width="232.24809"
         height="643.97693"
         x="485.34174"
         y="-19.72361" /><rect
         style="opacity:1;fill:#f37430;fill-opacity:1;stroke:#ffffff;stroke-width:3.02911"
         id="rect10922-84"
         width="148.31551"
         height="642.91626"
         x="339.57733"
         y="-19.294668" /><g
         id="XMLID_140_"
         transform="matrix(16.134881,0,0,16.134881,340.68819,37.40309)"
         style="fill:#ffffff;fill-opacity:1"><circle
           class="st7"
           cx="16"
           cy="16"
           id="XMLID_22_"
           r="14.5"
           style="fill:#ffffff;fill-opacity:1" /></g><rect
         style="opacity:1;fill:#f6b02d;fill-opacity:1;stroke:#ffffff;stroke-width:3.03856"
         id="rect10922"
         width="148.91447"
         height="644.32635"
         x="-42.163406"
         y="-19.2111" /><rect
         style="opacity:1;fill:#f69d6f;fill-opacity:1;stroke:#ffffff;stroke-width:3.03665"
         id="rect10922-84-7-4"
         width="148.30797"
         height="646.1535"
         x="1095.743"
         y="-19.29088" /><rect
         style="opacity:1;fill:#f16418;fill-opacity:1;stroke:#ffffff;stroke-width:3.79305"
         id="rect10922-8"
         width="232.24869"
         height="643.77472"
         x="108.13367"
         y="-19.64505" /><rect
         style="opacity:1;fill:#f69660;fill-opacity:1;stroke:#ffffff;stroke-width:3.79954"
         id="rect10922-8-1-4"
         width="232.2422"
         height="645.99902"
         x="864.29883"
         y="-20.39102" /><g
         fill="none"
         fill-rule="evenodd"
         stroke="currentColor"
         stroke-linecap="round"
         stroke-linejoin="round"
         transform="matrix(15.81018,0,0,15.81018,463.55198,176.27646)"
         id="g24796" /><g
         id="g26494"
         transform="translate(345.41585,40.440147)"><g
           id="g26412"
           style="fill:#800080;fill-opacity:1">
	<g
   id="g26410"
   style="fill:#800080;fill-opacity:1">
		<path
   d="m 360.677,196.217 c -2.37,-3.094 -6.299,-4.568 -10.116,-3.796 L 254.285,211.857 268.79,69.368 c 0.509,-5.001 -2.701,-9.627 -7.565,-10.9 -4.861,-1.272 -9.928,1.187 -11.934,5.798 l -99.223,228.031 c -1.516,3.485 -0.969,7.524 1.421,10.481 2.389,2.956 6.225,4.339 9.95,3.586 l 94.916,-19.161 -34.102,154.262 c -1.113,5.028 1.7,10.097 6.555,11.816 1.122,0.397 2.27,0.586 3.401,0.586 3.772,0 7.36,-2.103 9.128,-5.647 L 361.706,206.973 c 1.741,-3.488 1.341,-7.661 -1.029,-10.756 z m -100.643,168.841 19.619,-88.752 c 0.744,-3.369 -0.264,-6.885 -2.681,-9.348 -1.937,-1.974 -4.568,-3.054 -7.278,-3.054 -0.671,0 -1.346,0.066 -2.018,0.202 l -91.097,18.39 65.287,-150.039 -9.273,91.102 c -0.328,3.224 0.894,6.412 3.295,8.589 2.401,2.177 5.692,3.084 8.868,2.442 l 89.376,-18.042 z"
   id="path26408"
   style="fill:#800080;fill-opacity:1" />
	</g>
</g><g
           id="g26424"
           style="fill:#738d4e;fill-opacity:1"
           transform="matrix(0.98722344,0,0,0.94517651,0.87308595,16.94235)">
	<g
   id="g26422"
   style="fill:#738d4e;fill-opacity:1">
		<path
   d="m 496.208,309.379 c -5.44,-1.447 -11.028,1.797 -12.474,7.24 C 456.382,419.646 362.735,491.602 256,491.602 c -57.598,0 -112.031,-20.54 -154.962,-58.135 h 32.571 c 5.632,0 10.199,-4.566 10.199,-10.199 0,-5.633 -4.567,-10.199 -10.199,-10.199 H 78.534 c -5.632,0 -10.199,4.566 -10.199,10.199 v 55.076 c 0,5.633 4.567,10.199 10.199,10.199 5.632,0 10.199,-4.566 10.199,-10.199 V 449.816 C 135.206,490.046 193.915,512 256,512 c 115.973,0 217.728,-78.191 247.448,-190.147 1.445,-5.444 -1.796,-11.029 -7.24,-12.474 z"
   id="path26420"
   style="fill:#738d4e;fill-opacity:1" />
	</g>
</g><g
           id="g26430"
           style="fill:#4091d3;fill-opacity:1"
           transform="matrix(0.96900583,0,0,0.97387462,5.5636399,6.9545493)">
	<g
   id="g26428"
   style="fill:#4091d3;fill-opacity:1">
		<path
   d="m 438.566,27.538 c -5.632,0 -10.199,4.566 -10.199,10.199 V 66.725 C 381.126,23.611 320.379,0 256,0 187.619,0 123.333,26.628 74.982,74.98 26.628,123.333 0,187.62 0,256 c 0,5.633 4.567,10.199 10.199,10.199 5.632,0 10.199,-4.566 10.199,-10.199 0,-129.911 105.69,-235.602 235.602,-235.602 59.647,0 115.901,22.028 159.5,62.215 h -32.01 c -5.632,0 -10.199,4.566 -10.199,10.199 0,5.633 4.567,10.199 10.199,10.199 h 55.076 c 5.632,0 10.199,-4.566 10.199,-10.199 V 37.737 c 0,-5.633 -4.567,-10.199 -10.199,-10.199 z"
   id="path26426"
   style="fill:#4091d3;fill-opacity:1" />
	</g>
</g><g
           id="g26432">
</g><g
           id="g26434">
</g><g
           id="g26436">
</g><g
           id="g26438">
</g><g
           id="g26440">
</g><g
           id="g26442">
</g><g
           id="g26444">
</g><g
           id="g26446">
</g><g
           id="g26448">
</g><g
           id="g26450">
</g><g
           id="g26452">
</g><g
           id="g26454">
</g><g
           id="g26456">
</g><g
           id="g26458">
</g><g
           id="g26460">
</g></g></g></g><style
     id="style5576"><![CDATA[.C{fill-rule:evenodd}]]></style><style
     id="style16705"><![CDATA[.C{fill-rule:evenodd}]]></style><style
     type="text/css"
     id="style5966">
<![CDATA[
	.st0{fill:#E3F2FD;}
	.st1{fill:#80D8FF;}
	.st2{fill:#1AD2A4;}
	.st3{fill:#ECEFF1;}
	.st4{fill:#55FB9B;}
	.st5{fill:#BBDEFB;}
	.st6{fill:#C1AEE1;}
	.st7{fill:#FF5252;}
	.st8{fill:#FF8A80;}
	.st9{fill:#FFB74D;}
	.st10{fill:#FFF176;}
	.st11{fill:#FFFFFF;}
	.st12{fill:#65C7EA;}
	.st13{fill:#CFD8DC;}
	.st14{fill:#37474F;}
	.st15{fill:#78909C;}
	.st16{fill:#42A5F5;}
	.st17{fill:#455A64;}
]]>
</style></svg>
